<mxfile host="app.diagrams.net" agent="Mozilla/5.0 (Windows NT 10.0; Win64; x64) AppleWebKit/537.36 (KHTML, like Gecko) Chrome/131.0.0.0 Safari/537.36" version="24.9.3">
  <diagram name="第 1 页" id="ymLqD93Frhdz9d8888Fb">
    <mxGraphModel dx="1195" dy="643" grid="1" gridSize="10" guides="1" tooltips="1" connect="1" arrows="1" fold="1" page="1" pageScale="1" pageWidth="1654" pageHeight="1169" math="0" shadow="0">
      <root>
        <mxCell id="0" />
        <mxCell id="1" parent="0" />
        <mxCell id="VKED4_YyYt06xgRKydC3-3" value="商标查询" style="swimlane;childLayout=stackLayout;resizeParent=1;resizeParentMax=0;startSize=20;html=1;" vertex="1" parent="1">
          <mxGeometry x="340" y="30" width="520" height="670" as="geometry" />
        </mxCell>
        <mxCell id="VKED4_YyYt06xgRKydC3-4" value="前端页面" style="swimlane;startSize=20;html=1;" vertex="1" parent="VKED4_YyYt06xgRKydC3-3">
          <mxGeometry y="20" width="190" height="650" as="geometry" />
        </mxCell>
        <mxCell id="VKED4_YyYt06xgRKydC3-8" value="" style="edgeStyle=orthogonalEdgeStyle;rounded=0;orthogonalLoop=1;jettySize=auto;html=1;" edge="1" parent="VKED4_YyYt06xgRKydC3-4" source="VKED4_YyYt06xgRKydC3-1" target="VKED4_YyYt06xgRKydC3-7">
          <mxGeometry relative="1" as="geometry" />
        </mxCell>
        <mxCell id="VKED4_YyYt06xgRKydC3-1" value="开始" style="rounded=1;whiteSpace=wrap;html=1;" vertex="1" parent="VKED4_YyYt06xgRKydC3-4">
          <mxGeometry x="20" y="60" width="120" height="60" as="geometry" />
        </mxCell>
        <mxCell id="VKED4_YyYt06xgRKydC3-10" value="" style="edgeStyle=orthogonalEdgeStyle;rounded=0;orthogonalLoop=1;jettySize=auto;html=1;" edge="1" parent="VKED4_YyYt06xgRKydC3-4" source="VKED4_YyYt06xgRKydC3-7" target="VKED4_YyYt06xgRKydC3-9">
          <mxGeometry relative="1" as="geometry" />
        </mxCell>
        <mxCell id="VKED4_YyYt06xgRKydC3-7" value="消费者&lt;div&gt;输入商标名称作为查询条件&lt;/div&gt;" style="rounded=0;whiteSpace=wrap;html=1;" vertex="1" parent="VKED4_YyYt06xgRKydC3-4">
          <mxGeometry x="20" y="150" width="120" height="60" as="geometry" />
        </mxCell>
        <mxCell id="VKED4_YyYt06xgRKydC3-9" value="前端代码&lt;div&gt;存在 tag_id时&lt;/div&gt;&lt;div&gt;将 tag_id 作为参数传入查询商标接口&lt;/div&gt;" style="whiteSpace=wrap;html=1;rounded=0;" vertex="1" parent="VKED4_YyYt06xgRKydC3-4">
          <mxGeometry x="20" y="240" width="120" height="60" as="geometry" />
        </mxCell>
        <mxCell id="VKED4_YyYt06xgRKydC3-32" value="展示商标列表" style="whiteSpace=wrap;html=1;rounded=1;" vertex="1" parent="VKED4_YyYt06xgRKydC3-4">
          <mxGeometry x="30" y="560" width="120" height="60" as="geometry" />
        </mxCell>
        <mxCell id="VKED4_YyYt06xgRKydC3-21" value="" style="edgeStyle=orthogonalEdgeStyle;rounded=0;orthogonalLoop=1;jettySize=auto;html=1;" edge="1" parent="VKED4_YyYt06xgRKydC3-3" source="VKED4_YyYt06xgRKydC3-9" target="VKED4_YyYt06xgRKydC3-20">
          <mxGeometry relative="1" as="geometry" />
        </mxCell>
        <mxCell id="VKED4_YyYt06xgRKydC3-5" value="后端接口" style="swimlane;startSize=20;html=1;" vertex="1" parent="VKED4_YyYt06xgRKydC3-3">
          <mxGeometry x="190" y="20" width="330" height="650" as="geometry" />
        </mxCell>
        <mxCell id="VKED4_YyYt06xgRKydC3-18" value="" style="edgeStyle=orthogonalEdgeStyle;rounded=0;orthogonalLoop=1;jettySize=auto;html=1;entryX=1;entryY=0.5;entryDx=0;entryDy=0;" edge="1" parent="VKED4_YyYt06xgRKydC3-5" source="VKED4_YyYt06xgRKydC3-15" target="VKED4_YyYt06xgRKydC3-29">
          <mxGeometry relative="1" as="geometry">
            <mxPoint x="190" y="390" as="targetPoint" />
            <Array as="points">
              <mxPoint x="200" y="390" />
              <mxPoint x="200" y="590" />
            </Array>
          </mxGeometry>
        </mxCell>
        <mxCell id="VKED4_YyYt06xgRKydC3-27" value="" style="edgeStyle=orthogonalEdgeStyle;rounded=0;orthogonalLoop=1;jettySize=auto;html=1;" edge="1" parent="VKED4_YyYt06xgRKydC3-5" source="VKED4_YyYt06xgRKydC3-15" target="VKED4_YyYt06xgRKydC3-26">
          <mxGeometry relative="1" as="geometry" />
        </mxCell>
        <mxCell id="VKED4_YyYt06xgRKydC3-15" value="生产库查询&lt;div&gt;校验tag_id是否存在生产库&lt;/div&gt;" style="rhombus;whiteSpace=wrap;html=1;rounded=0;" vertex="1" parent="VKED4_YyYt06xgRKydC3-5">
          <mxGeometry x="60" y="350" width="80" height="80" as="geometry" />
        </mxCell>
        <mxCell id="VKED4_YyYt06xgRKydC3-19" value="no" style="text;html=1;align=center;verticalAlign=middle;resizable=0;points=[];autosize=1;strokeColor=none;fillColor=none;" vertex="1" parent="VKED4_YyYt06xgRKydC3-5">
          <mxGeometry x="140" y="360" width="40" height="30" as="geometry" />
        </mxCell>
        <mxCell id="VKED4_YyYt06xgRKydC3-24" value="" style="edgeStyle=orthogonalEdgeStyle;rounded=0;orthogonalLoop=1;jettySize=auto;html=1;entryX=1;entryY=0.5;entryDx=0;entryDy=0;" edge="1" parent="VKED4_YyYt06xgRKydC3-5" source="VKED4_YyYt06xgRKydC3-20" target="VKED4_YyYt06xgRKydC3-29">
          <mxGeometry relative="1" as="geometry">
            <mxPoint x="190" y="596" as="targetPoint" />
            <Array as="points">
              <mxPoint x="250" y="270" />
              <mxPoint x="250" y="590" />
            </Array>
          </mxGeometry>
        </mxCell>
        <mxCell id="VKED4_YyYt06xgRKydC3-20" value="是否存在 tag_id 参数" style="rhombus;whiteSpace=wrap;html=1;rounded=0;" vertex="1" parent="VKED4_YyYt06xgRKydC3-5">
          <mxGeometry x="60" y="230" width="80" height="80" as="geometry" />
        </mxCell>
        <mxCell id="VKED4_YyYt06xgRKydC3-16" value="" style="edgeStyle=orthogonalEdgeStyle;rounded=0;orthogonalLoop=1;jettySize=auto;html=1;exitX=0.5;exitY=1;exitDx=0;exitDy=0;" edge="1" parent="VKED4_YyYt06xgRKydC3-5" source="VKED4_YyYt06xgRKydC3-20" target="VKED4_YyYt06xgRKydC3-15">
          <mxGeometry relative="1" as="geometry">
            <mxPoint x="130" y="320" as="sourcePoint" />
          </mxGeometry>
        </mxCell>
        <mxCell id="VKED4_YyYt06xgRKydC3-22" value="yes" style="text;html=1;align=center;verticalAlign=middle;resizable=0;points=[];autosize=1;strokeColor=none;fillColor=none;" vertex="1" parent="VKED4_YyYt06xgRKydC3-5">
          <mxGeometry x="100" y="310" width="40" height="30" as="geometry" />
        </mxCell>
        <mxCell id="VKED4_YyYt06xgRKydC3-30" value="" style="edgeStyle=orthogonalEdgeStyle;rounded=0;orthogonalLoop=1;jettySize=auto;html=1;" edge="1" parent="VKED4_YyYt06xgRKydC3-5" source="VKED4_YyYt06xgRKydC3-26" target="VKED4_YyYt06xgRKydC3-29">
          <mxGeometry relative="1" as="geometry" />
        </mxCell>
        <mxCell id="VKED4_YyYt06xgRKydC3-26" value="解析 tag_id 获取到客户code，将客户code作为查询条件" style="whiteSpace=wrap;html=1;rounded=0;" vertex="1" parent="VKED4_YyYt06xgRKydC3-5">
          <mxGeometry x="40" y="460" width="120" height="60" as="geometry" />
        </mxCell>
        <mxCell id="VKED4_YyYt06xgRKydC3-28" value="yes" style="text;html=1;align=center;verticalAlign=middle;resizable=0;points=[];autosize=1;strokeColor=none;fillColor=none;" vertex="1" parent="VKED4_YyYt06xgRKydC3-5">
          <mxGeometry x="100" y="430" width="40" height="30" as="geometry" />
        </mxCell>
        <mxCell id="VKED4_YyYt06xgRKydC3-29" value="查询商标" style="whiteSpace=wrap;html=1;rounded=0;" vertex="1" parent="VKED4_YyYt06xgRKydC3-5">
          <mxGeometry x="40" y="560" width="120" height="60" as="geometry" />
        </mxCell>
        <mxCell id="VKED4_YyYt06xgRKydC3-25" value="no" style="text;html=1;align=center;verticalAlign=middle;resizable=0;points=[];autosize=1;strokeColor=none;fillColor=none;" vertex="1" parent="VKED4_YyYt06xgRKydC3-5">
          <mxGeometry x="140" y="248" width="40" height="30" as="geometry" />
        </mxCell>
        <mxCell id="VKED4_YyYt06xgRKydC3-33" value="" style="edgeStyle=orthogonalEdgeStyle;rounded=0;orthogonalLoop=1;jettySize=auto;html=1;" edge="1" parent="VKED4_YyYt06xgRKydC3-3" source="VKED4_YyYt06xgRKydC3-29" target="VKED4_YyYt06xgRKydC3-32">
          <mxGeometry relative="1" as="geometry" />
        </mxCell>
      </root>
    </mxGraphModel>
  </diagram>
</mxfile>
